<?xml version="1.0" encoding="utf-8"?>
<!-- Generator: Adobe Illustrator 24.1.1, SVG Export Plug-In . SVG Version: 6.00 Build 0)  -->
<svg version="1.1" id="Layer_10" xmlns="http://www.w3.org/2000/svg" xmlns:xlink="http://www.w3.org/1999/xlink" x="0px" y="0px"
	 viewBox="0 0 64 64" style="enable-background:new 0 0 64 64;" xml:space="preserve">
<path d="M43.6,37.3c4.9-3.5,8.1-9.2,8.1-15.7C51.7,11,43,2.4,32.4,2.4S13.1,11,13.1,21.6c0,6.5,3.2,12.2,8.1,15.7
	C11.7,41.6,5,51.2,5,62.3h6c0-11.8,9.6-21.4,21.4-21.4c11.8,0,21.4,9.6,21.4,21.4h6C59.8,51.2,53.1,41.6,43.6,37.3z M32.4,8.4
	c7.3,0,13.3,6,13.3,13.3s-6,13.3-13.3,13.3s-13.3-6-13.3-13.3S25.1,8.4,32.4,8.4z"/>
</svg>
