<?xml version="1.0" encoding="utf-8"?>
<!-- Generator: Adobe Illustrator 24.1.1, SVG Export Plug-In . SVG Version: 6.00 Build 0)  -->
<svg version="1.1" id="Layer_10" xmlns="http://www.w3.org/2000/svg" xmlns:xlink="http://www.w3.org/1999/xlink" x="0px" y="0px"
	 viewBox="0 0 64 64" style="enable-background:new 0 0 64 64;" xml:space="preserve">
<g>
	<path d="M5.7,62.8c-1.5,0-2.7-1.2-2.7-2.7V19.5c0-1.5,1.2-2.7,2.7-2.7H14C16.9,8,24,2,31.6,1.9c4.7,0,8.9,1.8,12.3,5.1
		c2.6,2.5,4.6,5.9,5.8,9.8h8.2c1.5,0,2.7,1.2,2.7,2.7v40.6c0,1.5-1.2,2.7-2.7,2.7H5.7z M55.1,57.4V22.2h-4.4
		c0.1,1.1,0.2,2.1,0.2,3.1c0,1.5-1.2,2.7-2.7,2.7c-1.5,0-2.7-1.2-2.7-2.7c0-1-0.1-2.1-0.2-3.1H18.2c-0.1,1-0.2,2.1-0.2,3.1
		c0,1.5-1.2,2.7-2.7,2.7c-1.5,0-2.7-1.2-2.7-2.7c0-1,0.1-2.1,0.2-3.1H8.4v35.1H55.1z M43.9,16.8c-0.9-2.3-2.2-4.4-3.8-5.9
		c-2.3-2.3-5.2-3.5-8.1-3.5l-0.2,0c-4.8,0.1-9.5,3.8-12,9.4H43.9z"/>
</g>
</svg>
