<?xml version="1.0" encoding="utf-8"?>
<!-- Generator: Adobe Illustrator 24.1.1, SVG Export Plug-In . SVG Version: 6.00 Build 0)  -->
<svg version="1.1" id="Layer_10" xmlns="http://www.w3.org/2000/svg" xmlns:xlink="http://www.w3.org/1999/xlink" x="0px" y="0px"
	 viewBox="0 0 64 64" style="enable-background:new 0 0 64 64;" xml:space="preserve">
<g>
	<g>
		<path d="M19.2,47.8c-5-3.6-7.9-9.5-7.9-15.6c0-9.3,6.6-17,15.3-18.9v4c0,1,0.8,1.7,1.7,1.7c0,0,0,0,0,0c0.3,0,0.6-0.1,0.9-0.2
			l11.6-6.7c0.5-0.3,0.9-0.9,0.9-1.5c0-0.6-0.3-1.2-0.9-1.5L29.1,2.5c-0.3-0.2-0.6-0.2-0.9-0.2c-1,0-1.7,0.8-1.7,1.7v4.6
			c-11.3,1.9-20,11.8-20,23.6c0,7.6,3.7,14.9,9.9,19.4c0.4,0.3,0.9,0.5,1.4,0.5c0.7,0,1.5-0.4,1.9-1c0.4-0.5,0.5-1.1,0.4-1.7
			C20,48.7,19.7,48.1,19.2,47.8z"/>
	</g>
	<g>
		<path d="M57.5,32.5c0-7.7-3.8-15-10.1-19.5c-0.4-0.3-0.9-0.4-1.4-0.4c-0.8,0-1.5,0.4-1.9,1c-0.4,0.5-0.5,1.1-0.4,1.8
			c0.1,0.6,0.4,1.2,1,1.5c5.1,3.6,8.1,9.5,8.1,15.7c0,9.3-6.6,17-15.3,18.9v-4c0-1-0.8-1.7-1.7-1.7c-0.3,0-0.6,0.1-0.9,0.2
			l-11.6,6.7c-0.5,0.3-0.9,0.9-0.9,1.5c0,0.6,0.3,1.2,0.9,1.5l11.6,6.7c0.3,0.2,0.6,0.2,0.9,0.2c0.4,0,0.9-0.2,1.2-0.5
			c0.3-0.3,0.5-0.8,0.5-1.2v-4.6C48.9,54.2,57.5,44.4,57.5,32.5z"/>
	</g>
</g>
</svg>
