<?xml version="1.0" encoding="utf-8"?>
<!-- Generator: Adobe Illustrator 24.1.1, SVG Export Plug-In . SVG Version: 6.00 Build 0)  -->
<svg version="1.1" id="Layer_10" xmlns="http://www.w3.org/2000/svg" xmlns:xlink="http://www.w3.org/1999/xlink" x="0px" y="0px"
	 viewBox="0 0 64 64" style="enable-background:new 0 0 64 64;" xml:space="preserve">
<g>
	<rect x="38.6" y="32.5" width="14.7" height="3.4"/>
	<rect x="22.9" y="42.9" width="30.4" height="3.4"/>
	<path d="M27.7,35.1l5.7,1l-2.6-6.3L24.2,26l-0.8-0.5c-0.8,0.5-1.7,0.8-2.6,0.9l4,12.9L27.7,35.1z"/>
	<path d="M58.6,18.6H40.8v3.6h17.7v30.2H14V39.9l-2.5-2.8l-1.1,0.2v15.3c0,1.9,1.6,3.5,3.5,3.5h44.7c1.9,0,3.5-1.6,3.5-3.5V22.1
		C62.1,20.2,60.6,18.6,58.6,18.6z"/>
	<path d="M15.6,37.6l3.7-11c-1.1-0.1-2-0.4-2.9-0.9l-0.9,0.5l-6.2,3.5l-2,4.9l5-0.7L15.6,37.6z"/>
	<path d="M25.3,24l9.6,5.3c1.7,0.9,3,0.1,3-1.8V10.8c0-1.9-1.4-2.7-3-1.8l-10,5.6c1.2,1.3,2,3,2,4.9C26.9,21.3,26.3,22.8,25.3,24z"
		/>
	<path d="M12.7,19.6c0-2,0.8-3.8,2.1-5.1L5.1,9c-1.7-0.9-3-0.1-3,1.8v16.8c0,1.9,1.3,2.7,3,1.8l9.3-5.2
		C13.3,22.9,12.7,21.3,12.7,19.6z"/>
	<path d="M19.8,24.4c2.7,0,4.8-2.2,4.8-4.8c0-2.7-2.2-4.8-4.8-4.8c-2.7,0-4.8,2.2-4.8,4.8C15,22.3,17.1,24.4,19.8,24.4z"/>
</g>
</svg>
