<?xml version="1.0" encoding="utf-8"?>
<!-- Generator: Adobe Illustrator 24.1.1, SVG Export Plug-In . SVG Version: 6.00 Build 0)  -->
<svg version="1.1" id="Layer_10" xmlns="http://www.w3.org/2000/svg" xmlns:xlink="http://www.w3.org/1999/xlink" x="0px" y="0px"
	 viewBox="0 0 64 64" style="enable-background:new 0 0 64 64;" xml:space="preserve">
<g>
	<g>
		<path d="M32.1,59.4L7,34.3c-6.7-6.7-6.8-17.5-0.2-24.1C9.9,7,14.1,5.3,18.6,5.3c0,0,0,0,0,0c4.6,0,8.9,1.8,12.2,5.1l1.3,1.3
			l1.3-1.3c3.3-3.3,7.6-5.1,12.2-5.1c4.5,0,8.7,1.7,11.8,4.9c6.6,6.6,6.5,17.4-0.2,24.1L32.1,59.4z M18.6,11.3
			c-2.9,0-5.6,1.1-7.6,3.1C6.8,18.7,6.9,25.7,11.2,30l20.8,20.9L52.9,30c4.3-4.4,4.4-11.3,0.2-15.6c-2-2-4.7-3.1-7.6-3.1
			c-3,0-5.8,1.2-7.9,3.3l-5.5,5.5l-5.5-5.5C24.4,12.5,21.6,11.3,18.6,11.3z"/>
	</g>
</g>
</svg>
