<?xml version="1.0" encoding="UTF-8" standalone="no"?>
<!-- <svg viewBox="0 0 32 32" version="1.1" xmlns="http://www.w3.org/2000/svg" xmlns:xlink="http://www.w3.org/1999/xlink">
    <path d="M25.522709,13.5369502 C25.7256898,14.3248434 25.8455558,15.1480745 25.8455558,15.9992932 C25.8455558,21.4379334 21.4376507,25.8455558 15.9998586,25.8455558 C10.5623493,25.8455558 6.15416148,21.4379334 6.15416148,15.9992932 C6.15416148,15.1480745 6.27459295,14.3248434 6.4775737,13.5369502 L3.6915357,13.5369502 L3.6915357,27.0764447 C3.6915357,27.7552145 4.24280653,28.3062027 4.92355534,28.3062027 L27.0764447,28.3062027 C27.7571935,28.3062027 28.3084643,27.7552145 28.3084643,27.0764447 L28.3084643,13.5369502 L25.522709,13.5369502 Z M27.0764447,3.6915357 L23.384909,3.6915357 C22.7050083,3.6915357 22.1543028,4.24280653 22.1543028,4.92214183 L22.1543028,8.61509104 C22.1543028,9.29442633 22.7050083,9.84569717 23.384909,9.84569717 L27.0764447,9.84569717 C27.7571935,9.84569717 28.3084643,9.29442633 28.3084643,8.61509104 L28.3084643,4.92214183 C28.3084643,4.24280653 27.7571935,3.6915357 27.0764447,3.6915357 Z M9.84597988,15.9992932 C9.84597988,19.3976659 12.6009206,22.1537374 15.9998586,22.1537374 C19.3987967,22.1537374 22.1543028,19.3976659 22.1543028,15.9992932 C22.1543028,12.6003551 19.3987967,9.84569717 15.9998586,9.84569717 C12.6009206,9.84569717 9.84597988,12.6003551 9.84597988,15.9992932 Z M3.6915357,31.9997173 C1.65296441,31.9997173 0,30.3461875 0,28.3062027 L0,3.6915357 C0,1.6526817 1.65296441,0 3.6915357,0 L28.3084643,0 C30.3473183,0 32,1.6526817 32,3.6915357 L32,28.3062027 C32,30.3461875 30.3473183,31.9997173 28.3084643,31.9997173 L3.6915357,31.9997173 Z" id="Imported-Layers"></path>
</svg> -->
<svg version="1.1" id="Layer_10" xmlns="http://www.w3.org/2000/svg" xmlns:xlink="http://www.w3.org/1999/xlink" x="0px" y="0px"
     viewBox="0 0 64 64" style="enable-background:new 0 0 64 64;" xml:space="preserve">
<g>
    <path d="M62.3,19.6c-0.2-3.2-0.7-5.4-1.4-7.3c-0.8-2-1.8-3.7-3.5-5.3C55.7,5.2,54,4.2,52,3.4c-1.9-0.7-4.1-1.3-7.3-1.4
        c-3.2-0.1-4.3-0.2-12.4-0.2C24,1.8,23,1.8,19.8,2c-3.2,0.2-5.4,0.7-7.3,1.4c-2,0.8-3.7,1.8-5.3,3.5c-1.7,1.7-2.7,3.4-3.5,5.3
        c-0.7,1.9-1.3,4.1-1.4,7.3C2,22.8,2,23.8,2,32s0,9.2,0.2,12.5c0.2,3.2,0.7,5.4,1.4,7.3c0.8,2,1.8,3.7,3.5,5.3
        c1.7,1.7,3.4,2.7,5.3,3.5c1.9,0.7,4.1,1.3,7.3,1.4c3.2,0.2,4.3,0.2,12.5,0.2s9.2,0,12.5-0.2c3.2-0.2,5.4-0.7,7.3-1.4
        c2-0.8,3.7-1.8,5.3-3.5c1.7-1.7,2.7-3.4,3.5-5.3c0.7-1.9,1.3-4.1,1.4-7.3c0.2-3.2,0.2-4.3,0.2-12.5S62.4,22.8,62.3,19.6z
         M56.8,44.2c-0.1,2.9-0.6,4.5-1,5.6c-0.6,1.4-1.2,2.4-2.3,3.5c-1.1,1.1-2.1,1.7-3.5,2.3c-1.1,0.4-2.7,0.9-5.6,1
        c-3.2,0.2-4.1,0.2-12.2,0.2s-9,0-12.2-0.2c-2.9-0.1-4.5-0.6-5.6-1C13,55,12,54.4,10.9,53.3c-1.1-1.1-1.7-2.1-2.3-3.5
        c-0.4-1.1-0.9-2.7-1-5.6C7.5,41,7.4,40.1,7.4,32c0-8.1,0-9,0.2-12.2c0.1-2.9,0.6-4.5,1-5.6c0.6-1.4,1.2-2.4,2.3-3.5S13,9,14.4,8.5
        c1.1-0.4,2.7-0.9,5.6-1c3.2-0.1,4.1-0.2,12.2-0.2s9,0,12.2,0.2C47.4,7.6,49,8,50,8.5c1.4,0.6,2.4,1.2,3.5,2.3
        c1.1,1.1,1.7,2.1,2.3,3.5c0.4,1.1,0.9,2.7,1,5.6C57,23,57,24,57,32C57,40.1,57,41,56.8,44.2z"/>
    <path d="M32.2,16.5c-8.6,0-15.5,6.9-15.5,15.5c0,8.6,6.9,15.5,15.5,15.5S47.7,40.6,47.7,32C47.7,23.4,40.8,16.5,32.2,16.5z
         M32.2,42.1c-5.6,0-10.1-4.5-10.1-10.1s4.5-10.1,10.1-10.1S42.3,26.4,42.3,32S37.8,42.1,32.2,42.1z"/>
    <path d="M48.3,12.3c-2,0-3.6,1.6-3.6,3.6c0,2,1.6,3.6,3.6,3.6c2,0,3.6-1.6,3.6-3.6C52,13.9,50.3,12.3,48.3,12.3z"/>
</g>
</svg>
