<?xml version="1.0" encoding="utf-8"?>
<!-- Generated by IcoMoon.io -->
<!DOCTYPE svg PUBLIC "-//W3C//DTD SVG 1.1//EN" "http://www.w3.org/Graphics/SVG/1.1/DTD/svg11.dtd">
<svg viewBox="0 0 29 25" width="29" height="25" version="1.1" xmlns="http://www.w3.org/2000/svg" xmlns:xlink="http://www.w3.org/1999/xlink">
  <g id="Masterpass" transform="translate(-1495 -6415)">
    <g id="Masterpass-2" data-name="Masterpass" transform="translate(1495 6407.59)">
      <path id="Path_23" data-name="Path 23" d="M28.94,28.948a1.651,1.651,0,0,0-1.027-.256c-.665,0-1.088.321-1.088.833q0,.673.906.769l.242.064c.3.064.423.128.423.256,0,.192-.181.321-.6.321a1.5,1.5,0,0,1-.846-.256l-.242.449a1.581,1.581,0,0,0,1.088.321c.725,0,1.148-.385,1.148-.9,0-.449-.362-.705-.906-.833l-.242-.064c-.242-.064-.423-.064-.423-.256s.181-.321.483-.321a1.293,1.293,0,0,1,.785.256l.3-.385Zm-2.658,0a1.651,1.651,0,0,0-1.027-.256c-.665,0-1.087.321-1.087.833q0,.673.906.769l.242.064c.3.064.423.128.423.256,0,.192-.181.321-.6.321a1.5,1.5,0,0,1-.846-.256l-.242.449a1.581,1.581,0,0,0,1.088.321c.725,0,1.148-.385,1.148-.9,0-.449-.363-.705-.906-.833l-.242-.064c-.242-.064-.423-.064-.423-.256s.181-.321.483-.321a1.293,1.293,0,0,1,.785.256C26.04,29.461,26.281,28.948,26.281,28.948ZM19.938,30.1a.787.787,0,1,1-1.571,0,.887.887,0,0,1,.785-.9A.807.807,0,0,1,19.938,30.1Zm-2.054,0V32.41h.544V31.127a.879.879,0,0,0,.785.385,1.418,1.418,0,0,0,0-2.821.879.879,0,0,0-.785.385v-.321h-.544Zm3.625,0a.787.787,0,1,1,.785.833A.753.753,0,0,1,21.508,30.1Zm2.054,0V28.756h-.544v.321a.879.879,0,0,0-.785-.385,1.418,1.418,0,0,0,0,2.821.879.879,0,0,0,.785-.385v.321h.544V30.1Zm-18.488,0a.787.787,0,1,1,.785.833A.786.786,0,0,1,5.075,30.1Zm2.054,0V28.756H6.585v.321a.879.879,0,0,0-.785-.385,1.418,1.418,0,0,0,0,2.821.879.879,0,0,0,.785-.385v.321h.544V30.1Zm6.887-.9a.675.675,0,0,1,.665.641H13.352A.675.675,0,0,1,14.017,29.2Zm0-.513a1.415,1.415,0,0,0,.06,2.821,1.583,1.583,0,0,0,1.027-.385l-.3-.449a1.117,1.117,0,0,1-.725.256.776.776,0,0,1-.785-.641h1.873v-.256A1.156,1.156,0,0,0,14.017,28.692Zm-4.108.256a1.651,1.651,0,0,0-1.027-.256c-.665,0-1.088.321-1.088.833q0,.673.906.769l.242.064c.3.064.423.128.423.256,0,.192-.181.321-.6.321a1.5,1.5,0,0,1-.846-.256l-.242.449a1.581,1.581,0,0,0,1.088.321c.725,0,1.148-.385,1.148-.9,0-.449-.363-.705-.906-.833l-.242-.064c-.242-.064-.423-.064-.423-.256s.181-.321.483-.321a1.293,1.293,0,0,1,.785.256l.3-.385Zm7.129-.256a.687.687,0,0,0-.665.385v-.321h-.544v2.692h.544V29.91c0-.449.181-.705.544-.705a.727.727,0,0,1,.362.064l.181-.577Zm-4.712.064h-.906v-.833h-.544v.833h-.544v.513h.544v1.218c0,.641.242,1.026.906,1.026a1.04,1.04,0,0,0,.665-.192l-.181-.513a.775.775,0,0,1-.483.128c-.3,0-.362-.192-.362-.449V29.268h.906v-.513ZM4.048,31.448V29.781a.983.983,0,0,0-1.027-1.09,1.14,1.14,0,0,0-.906.449.844.844,0,0,0-.846-.449.774.774,0,0,0-.725.385v-.321H0v2.692H.544V29.974c0-.449.242-.705.6-.705s.544.256.544.705v1.474h.544V29.974c0-.449.242-.705.6-.705s.544.256.544.705v1.474Z"/>
      <path id="Path_24" data-name="Path 24" d="M11.056,16.768A9.432,9.432,0,0,1,14.5,9.4,8.5,8.5,0,0,0,8.942,7.41,9.132,9.132,0,0,0,0,16.768a9.132,9.132,0,0,0,8.942,9.359A8.981,8.981,0,0,0,14.5,24.14a9.625,9.625,0,0,1-3.444-7.372"/>
      <path id="Path_25" data-name="Path 25" d="M29,16.768a9.132,9.132,0,0,1-8.942,9.359A8.981,8.981,0,0,1,14.5,24.14a9.432,9.432,0,0,0,3.444-7.372A9.432,9.432,0,0,0,14.5,9.4,8.5,8.5,0,0,1,20.058,7.41,9.132,9.132,0,0,1,29,16.768"/>
    </g>
    <path id="Color_Overlay" data-name="Color Overlay" d="M1512.882,6440v-3.654h.545v.322a.876.876,0,0,1,.786-.385,1.417,1.417,0,0,1,0,2.818.879.879,0,0,1-.786-.383V6440Zm.483-2.308a.788.788,0,1,0,1.573,0,.808.808,0,0,0-.787-.9A.888.888,0,0,0,1513.366,6437.692Zm2.6,0a1.3,1.3,0,0,1,1.269-1.409.878.878,0,0,1,.786.385v-.322h.545v2.692h-.545v-.32a.881.881,0,0,1-.786.383A1.3,1.3,0,0,1,1515.965,6437.692Zm.543,0a.752.752,0,0,0,.786.833.834.834,0,1,0-.786-.833Zm-8.76,0a1.3,1.3,0,0,1,1.269-1.409,1.156,1.156,0,0,1,1.149,1.345v.257h-1.873a.772.772,0,0,0,.784.64,1.117,1.117,0,0,0,.726-.255l.3.449a1.586,1.586,0,0,1-1.028.383A1.309,1.309,0,0,1,1507.748,6437.692Zm.6-.255h1.33a.666.666,0,0,0-1.33,0Zm-2.478.64v-1.217h-.543v-.514h.543v-.833h.545v.833h.905v.514h-.905v1.217c0,.257.06.448.362.448a.785.785,0,0,0,.483-.126l.181.512a1.043,1.043,0,0,1-.664.19C1506.117,6439.1,1505.875,6438.718,1505.875,6438.077Zm-6.344-.385a1.3,1.3,0,0,1,1.269-1.409.878.878,0,0,1,.786.385v-.322h.543v2.692h-.543v-.32a.881.881,0,0,1-.786.383A1.3,1.3,0,0,1,1499.531,6437.692Zm.545,0a.786.786,0,1,0,.785-.833A.785.785,0,0,0,1500.076,6437.692Zm21.628,1.026.242-.449a1.489,1.489,0,0,0,.845.255c.423,0,.6-.126.6-.32,0-.127-.121-.19-.423-.255l-.242-.064c-.6-.064-.905-.32-.905-.77,0-.512.422-.832,1.088-.832a1.645,1.645,0,0,1,1.026.255l-.3.385a1.291,1.291,0,0,0-.784-.255c-.3,0-.483.127-.483.32s.179.192.422.257l.241.063c.545.129.907.385.907.834,0,.513-.422.9-1.147.9A1.588,1.588,0,0,1,1521.7,6438.718Zm-2.657,0,.241-.449a1.489,1.489,0,0,0,.845.255c.423,0,.6-.126.6-.32,0-.127-.121-.19-.423-.255l-.241-.064c-.6-.064-.907-.32-.907-.77,0-.512.423-.832,1.088-.832a1.645,1.645,0,0,1,1.026.255s-.241.512-.3.385a1.3,1.3,0,0,0-.785-.255c-.3,0-.483.127-.483.32s.181.192.422.257l.242.063c.543.129.905.385.905.834,0,.513-.422.9-1.147.9A1.582,1.582,0,0,1,1519.047,6438.718Zm-8.217.32v-2.692h.543v.322a.685.685,0,0,1,.664-.385h.423l-.181.577a.728.728,0,0,0-.364-.064c-.362,0-.543.255-.543.7v1.539Zm-8.157-.32.242-.449a1.489,1.489,0,0,0,.845.255c.423,0,.6-.126.6-.32,0-.127-.121-.19-.423-.255l-.241-.064c-.6-.064-.907-.32-.907-.77,0-.512.423-.832,1.088-.832a1.649,1.649,0,0,1,1.026.255l-.3.385a1.3,1.3,0,0,0-.786-.255c-.3,0-.483.127-.483.32s.181.192.423.257l.241.063c.545.129.907.385.907.834,0,.513-.423.9-1.148.9A1.586,1.586,0,0,1,1502.673,6438.718Zm-4.289.32v-1.474c0-.45-.181-.705-.543-.705s-.6.255-.6.705v1.474h-.543v-1.474c0-.45-.183-.705-.545-.705s-.6.255-.6.705v1.474H1495v-2.692h.543v.322a.772.772,0,0,1,.726-.385.842.842,0,0,1,.845.448,1.138,1.138,0,0,1,.905-.448.981.981,0,0,1,1.028,1.087v1.668Zm11.116-7.307a9.611,9.611,0,0,0,0-14.743,8.49,8.49,0,0,1,5.558-1.988,9.369,9.369,0,0,1,0,18.718A8.989,8.989,0,0,1,1509.5,6431.731Zm-14.5-7.372a9.132,9.132,0,0,1,8.941-9.36,8.484,8.484,0,0,1,5.558,1.988,9.427,9.427,0,0,0-3.443,7.372,9.624,9.624,0,0,0,3.443,7.372,8.985,8.985,0,0,1-5.558,1.986A9.132,9.132,0,0,1,1495,6424.36Z" />
  </g>
</svg>
