<?xml version="1.0" encoding="utf-8"?>
<!-- Generated by IcoMoon.io -->
<!DOCTYPE svg PUBLIC "-//W3C//DTD SVG 1.1//EN" "http://www.w3.org/Graphics/SVG/1.1/DTD/svg11.dtd">
<svg viewBox="0 0 43 17.001" id="icon-logo-chasepay">
    <g id="Chase_pay" data-name="Chase pay" transform="translate(-1437 -6418)">
      <g id="Chase_pay-2" data-name="Chase pay" transform="translate(1436.544 6398.71)">
        <g id="Group_3" data-name="Group 3">
          <path id="Path_9" data-name="Path 9" d="M19.537,20.363h3.378c2.282,0,3.926.895,3.926,3.758a3.631,3.631,0,0,1-3.926,3.937H21.363v4.474H19.537Zm3.287,5.995c1.552,0,2.282-.716,2.282-2.237s-.73-2.058-2.282-2.058H21.363v4.295Z"/>
          <path id="Path_10" data-name="Path 10" d="M27.571,30.116c0-2.058,1.552-3.042,5.386-3.4-.091-1.074-.548-1.789-1.826-1.789a4.782,4.782,0,0,0-2.556.984l-.639-1.432A6.524,6.524,0,0,1,31.5,23.226c2.1,0,3.287,1.432,3.287,3.937v5.368H33.323l-.183-1.163h-.091a4.648,4.648,0,0,1-2.921,1.342A2.443,2.443,0,0,1,27.571,30.116Zm5.386-.179V27.968c-2.83.179-3.652.895-3.652,1.879,0,.805.639,1.163,1.369,1.163A2.892,2.892,0,0,0,32.958,29.937Z"/>
          <path id="Path_11" data-name="Path 11" d="M35.788,36.111l.365-1.611a1.583,1.583,0,0,0,.639.089c1,0,1.552-.626,1.917-1.611l.183-.537-3.561-9.037h1.826l1.552,4.474c.274.805.548,1.789.822,2.684h.091c.274-.895.548-1.789.73-2.684l1.369-4.474h1.735l-3.2,9.574c-.639,2.058-1.552,3.311-3.469,3.311A3.342,3.342,0,0,1,35.788,36.111Z"/>
        </g>
        <path id="Path_12" data-name="Path 12" d="M15.064,23.405H5.934c-.365,0-.548-.089-.548-.447V20.005c0-.537.183-.716.73-.716h4.2a1.316,1.316,0,0,1,.548.179l4.108,3.758A.275.275,0,0,0,15.064,23.405Z"/>
        <path id="Path_13" data-name="Path 13" d="M11.412,33.605V24.658c0-.358.091-.537.548-.447h2.921c.548,0,.73.089.73.626v4.205a.947.947,0,0,1-.183.537c-1.187,1.253-2.465,2.595-3.743,3.847C11.594,33.426,11.5,33.516,11.412,33.605Z"/>
        <path id="Path_14" data-name="Path 14" d="M1.1,30.026h9.13c.548,0,.548,0,.548.537v2.863c0,.537-.183.716-.73.716H5.752a.7.7,0,0,1-.456-.179c-1.369-1.253-2.648-2.505-4.017-3.668C1.187,30.205,1.187,30.116,1.1,30.026Z"/>
        <path id="Path_15" data-name="Path 15" d="M4.656,19.826v8.947c0,.358-.091.537-.548.537H1.1c-.456,0-.639-.179-.639-.626V24.479a1.254,1.254,0,0,1,.183-.537C1.917,22.6,3.1,21.347,4.382,20.095Z"/>
      </g>
      <path id="Color_Overlay" data-name="Color Overlay" d="M1472.332,6434.822l.365-1.612a1.563,1.563,0,0,0,.638.09c1,0,1.552-.626,1.919-1.612l.182-.536-3.561-9.037h1.827l1.552,4.475c.273.8.547,1.789.82,2.684h.092c.275-.9.547-1.79.73-2.684l1.37-4.475H1480l-3.194,9.573c-.64,2.059-1.552,3.313-3.471,3.313A3.346,3.346,0,0,1,1472.332,6434.822Zm-30.037-1.969a.712.712,0,0,1-.457-.179c-1.368-1.253-2.647-2.506-4.016-3.667-.09-.091-.09-.18-.182-.268h9.129c.547,0,.547,0,.547.536v2.861c0,.538-.182.717-.73.717Zm5.66-.895v-8.59c0-.358.09-.536.547-.447h2.922c.547,0,.73.089.73.626v4.206a.937.937,0,0,1-.182.536c-1.187,1.253-2.464,2.6-3.744,3.847-.09,0-.182.091-.273.18Zm16.159-3.132c0-2.059,1.552-3.042,5.386-3.4-.09-1.074-.547-1.79-1.825-1.79a4.786,4.786,0,0,0-2.558.984l-.638-1.431a6.523,6.523,0,0,1,3.559-1.253c2.1,0,3.288,1.432,3.288,3.937v5.368h-1.462l-.182-1.163h-.09a4.652,4.652,0,0,1-2.922,1.342c-.053,0-.1,0-.157,0A2.45,2.45,0,0,1,1464.115,6428.827Zm1.734-.268c0,.8.64,1.161,1.37,1.161a2.886,2.886,0,0,0,2.282-1.072v-1.968C1466.671,6426.858,1465.849,6427.574,1465.849,6428.559Zm-9.769,2.683v-12.167h3.378c2.282,0,3.926.895,3.926,3.758a3.63,3.63,0,0,1-3.926,3.936h-1.552v4.474Zm1.827-6.172h1.46c1.552,0,2.284-.717,2.284-2.237s-.732-2.058-2.284-2.058h-1.46Zm-20.268,2.952c-.457,0-.64-.179-.64-.626v-4.206a1.263,1.263,0,0,1,.182-.536c1.279-1.342,2.466-2.6,3.744-3.849.092-.089.182-.177.273-.268v8.949c0,.357-.09.536-.546.536Zm13.6-5.906h-8.764c-.365,0-.547-.089-.547-.448v-2.952c0-.536.182-.715.73-.715h4.2a1.31,1.31,0,0,1,.547.179l4.109,3.757a.275.275,0,0,0,.09.179Z" />
    </g>
</svg>
