<?xml version="1.0" encoding="utf-8"?>
<!-- Generated by IcoMoon.io -->
<!DOCTYPE svg PUBLIC "-//W3C//DTD SVG 1.1//EN" "http://www.w3.org/Graphics/SVG/1.1/DTD/svg11.dtd">
<svg viewBox="0 0 33 19" width="33" height="19" version="1.1" xmlns="http://www.w3.org/2000/svg" xmlns:xlink="http://www.w3.org/1999/xlink">
  <defs>
    <clipPath id="clip-path">
      <rect id="crop" width="33" height="19" transform="translate(0 11.543)" fill="none"/>
    </clipPath>
  </defs>
  <g id="Visa_Checkout" data-name="Visa Checkout" transform="translate(-1539 -6418)">
    <g id="Visa_Checkout-2" data-name="Visa Checkout" transform="translate(1539 6406.457)" clip-path="url(#clip-path)">
      <g id="Group_1" data-name="Group 1">
        <path id="Path_1" data-name="Path 1" d="M11.756,19.673h2.338l1.512-7.942H13.2Z"/>
        <path id="Path_2" data-name="Path 2" d="M20.419,14.92c-.825-.375-1.375-.625-1.306-1,0-.313.412-.688,1.375-.688a4.473,4.473,0,0,1,1.787.313l.206.063.344-1.751a6.237,6.237,0,0,0-2.131-.313c-2.338,0-3.987,1.063-4.056,2.626,0,1.126,1.169,1.813,2.063,2.189.963.375,1.238.625,1.238,1,0,.563-.756.75-1.444.75a5.4,5.4,0,0,1-2.269-.438l-.275-.063-.344,1.813a7.258,7.258,0,0,0,2.681.438c2.544,0,4.125-1.063,4.125-2.752C22.413,16.171,21.794,15.483,20.419,14.92Z"/>
        <path id="Path_3" data-name="Path 3" d="M28.875,11.731H27.019c-.55,0-1.031.125-1.238.688l-3.575,7.317H24.75s.413-1,.481-1.188h3.025c.069.25.275,1.188.275,1.188h2.2Zm-2.956,5.128c.206-.438.963-2.251.963-2.251s.206-.438.344-.75l.138.688s.481,1.876.55,2.314Z"/>
        <path id="Path_4" data-name="Path 4" d="M9.694,11.731l-2.337,5.44-.275-1.126-.756-3.627a1.039,1.039,0,0,0-1.1-.688H1.375v.188a8.578,8.578,0,0,1,2.475.875l2.131,6.941H8.525l3.781-7.942H9.694Z"/>
      </g>
      <text id="Checkout" transform="translate(-0.004 27.05)" font-size="7" font-family="Helvetica" style="isolation: isolate"><tspan x="0" y="0">Checkout</tspan></text>
    </g>
    <path id="Color_Overlay" data-name="Color Overlay" d="M1559.483,6433.128a2.008,2.008,0,0,1-.444-1.371,2.179,2.179,0,0,1,.468-1.471,1.568,1.568,0,0,1,1.258-.546,1.658,1.658,0,0,1,1.2.471,1.839,1.839,0,0,1,.489,1.387,2.39,2.39,0,0,1-.431,1.463,1.558,1.558,0,0,1-1.337.578A1.5,1.5,0,0,1,1559.483,6433.128Zm.444-2.42a1.991,1.991,0,0,0-.257,1.038,1.739,1.739,0,0,0,.257.975.907.907,0,0,0,.814.389.849.849,0,0,0,.84-.463,2.3,2.3,0,0,0,.228-1.03,1.831,1.831,0,0,0-.165-.834.925.925,0,0,0-.895-.505A.885.885,0,0,0,1559.927,6430.708Zm-11.262,2.432a1.94,1.94,0,0,1-.475-1.394,2.11,2.11,0,0,1,.478-1.432,1.581,1.581,0,0,1,1.251-.551,1.663,1.663,0,0,1,.756.184,1.384,1.384,0,0,1,.557.473,1.62,1.62,0,0,1,.245.646,4.168,4.168,0,0,1,.055.807h-2.682a1.563,1.563,0,0,0,.262.893.886.886,0,0,0,.764.337.986.986,0,0,0,.769-.318,1.09,1.09,0,0,0,.233-.428h.6a1.259,1.259,0,0,1-.158.449,1.585,1.585,0,0,1-.3.405,1.443,1.443,0,0,1-.694.37,2.175,2.175,0,0,1-.5.055A1.545,1.545,0,0,1,1548.665,6433.14Zm.507-2.532a1.144,1.144,0,0,0-.305.776h2.033a1.6,1.6,0,0,0-.173-.639.893.893,0,0,0-.844-.444A.931.931,0,0,0,1549.172,6430.608Zm-9.085,2.5a3.257,3.257,0,0,1-.2-3.985,2.146,2.146,0,0,1,1.754-.773,2.056,2.056,0,0,1,1.479.5,1.774,1.774,0,0,1,.586,1.142h-.664a1.383,1.383,0,0,0-.449-.769,1.431,1.431,0,0,0-.945-.284,1.518,1.518,0,0,0-1.2.521,2.38,2.38,0,0,0-.457,1.6,2.324,2.324,0,0,0,.413,1.43,1.439,1.439,0,0,0,1.229.549,1.3,1.3,0,0,0,1.145-.578,2.2,2.2,0,0,0,.31-.8h.664a2.271,2.271,0,0,1-.588,1.33,2.1,2.1,0,0,1-1.613.646A2.134,2.134,0,0,1,1540.087,6433.107Zm12.379-.02a2.014,2.014,0,0,1-.428-1.311,2.211,2.211,0,0,1,.468-1.5,1.513,1.513,0,0,1,1.193-.536,1.59,1.59,0,0,1,1.008.3,1.438,1.438,0,0,1,.465,1.035h-.6a1.115,1.115,0,0,0-.249-.562.794.794,0,0,0-.626-.225.866.866,0,0,0-.841.575,2.307,2.307,0,0,0-.163.919,1.728,1.728,0,0,0,.233.927.9.9,0,0,0,1.337.142,1.279,1.279,0,0,0,.31-.641h.6a1.444,1.444,0,0,1-1.561,1.4A1.4,1.4,0,0,1,1552.466,6433.088Zm10.855,0a1.574,1.574,0,0,1-.153-.749v-2.488h.628v2.43a1.017,1.017,0,0,0,.09.458.618.618,0,0,0,.612.328.86.86,0,0,0,.873-.575,2.247,2.247,0,0,0,.126-.843v-1.8h.617v3.66h-.581l.006-.539a1.263,1.263,0,0,1-.3.352,1.305,1.305,0,0,1-.854.287A1.1,1.1,0,0,1,1563.321,6433.083Zm4.03.262a.991.991,0,0,1-.153-.573v-2.422h-.5v-.5h.5v-1.022h.622v1.022h.584v.5h-.584v2.388a.261.261,0,0,0,.129.257.568.568,0,0,0,.241.037h.1c.034,0,.074,0,.12-.008v.484a1.4,1.4,0,0,1-.22.045,1.985,1.985,0,0,1-.249.015A.669.669,0,0,1,1567.352,6433.345Zm-9.328.161-1.141-1.845-.515.471v1.374h-.593v-5.02h.593v2.916l1.578-1.557h.786l-1.4,1.371,1.481,2.29Zm-11.17,0V6431.2a1.3,1.3,0,0,0-.1-.592.656.656,0,0,0-.63-.3,1.047,1.047,0,0,0-.694.263,1.268,1.268,0,0,0-.31.995v1.94h-.615v-5.038h.615v1.873a1.8,1.8,0,0,1,.392-.389,1.319,1.319,0,0,1,.741-.2,1.1,1.1,0,0,1,1.08.557,1.89,1.89,0,0,1,.155.844v2.348Zm7.752-7.627.344-1.813.276.063a5.392,5.392,0,0,0,2.269.438c.686,0,1.443-.187,1.443-.75,0-.376-.276-.626-1.237-1-.895-.376-2.063-1.062-2.063-2.189.069-1.563,1.719-2.625,4.056-2.625a6.239,6.239,0,0,1,2.131.312l-.344,1.751-.205-.063a4.49,4.49,0,0,0-1.787-.312c-.964,0-1.376.375-1.376.687-.069.376.481.626,1.306,1,1.374.563,1.994,1.251,1.994,2.189,0,1.687-1.581,2.751-4.125,2.751A7.254,7.254,0,0,1,1554.606,6425.878Zm12.925.313s-.207-.938-.275-1.187h-3.024c-.069.186-.483,1.187-.483,1.187h-2.543l3.575-7.318c.207-.562.688-.686,1.239-.686h1.855l1.857,8Zm-1.65-5.128s-.756,1.813-.962,2.252h1.994c-.069-.439-.549-2.313-.549-2.313l-.139-.688C1566.087,6420.626,1565.881,6421.063,1565.881,6421.063Zm-20.9,5.128-2.131-6.941a8.519,8.519,0,0,0-2.474-.875v-.187h3.849a1.039,1.039,0,0,1,1.1.686l.756,3.628.276,1.125,2.338-5.439v.063h2.613l-3.781,7.941Zm5.776-.063,1.443-7.941h2.406l-1.511,7.941Z"/>
  </g>
</svg>
