<?xml version="1.0" encoding="utf-8"?>
<!-- Generator: Adobe Illustrator 24.1.1, SVG Export Plug-In . SVG Version: 6.00 Build 0)  -->
<svg version="1.1" id="Layer_10" xmlns="http://www.w3.org/2000/svg" xmlns:xlink="http://www.w3.org/1999/xlink" x="0px" y="0px"
	 viewBox="0 0 64 64" style="enable-background:new 0 0 64 64;" xml:space="preserve">
<path d="M59.6,57L44.7,41.1c7.7-8.9,7.7-22.4-0.5-31.1v0c-8.8-9.4-23.5-9.8-32.8-1.1C2,17.6,1.5,32.4,10.3,41.7
	c4.6,4.9,10.8,7.3,17,7.3c4.5,0,9.1-1.3,13-4l15,16c0.6,0.6,1.4,1,2.2,1c0.7,0,1.5-0.3,2-0.8C60.7,60.1,60.8,58.2,59.6,57z
	 M14.7,37.6c-6.5-6.9-6.1-17.9,0.8-24.4c3.3-3.1,7.5-4.6,11.8-4.6c4.6,0,9.2,1.8,12.6,5.4c6.5,6.9,6.1,17.9-0.8,24.4
	C32.1,44.9,21.1,44.6,14.7,37.6z"/>
</svg>
