<?xml version="1.0" encoding="UTF-8" standalone="no"?>
<!-- <svg viewBox="0 0 32 32" version="1.1" xmlns="http://www.w3.org/2000/svg" xmlns:xlink="http://www.w3.org/1999/xlink">
    <path d="M23.852762,25.5589268 C23.2579209,25.8427189 22.1195458,26.089634 21.2697728,26.1120809 C18.7092304,26.1810247 18.2121934,24.3131275 18.1897466,22.9566974 L18.1897466,12.9951133 L24.6159544,12.9951133 L24.6159544,8.15140729 L18.2137967,8.15140729 L18.2137967,0 L13.5256152,0 C13.4486546,0 13.3139736,0.0673405008 13.2963368,0.238898443 C13.0221648,2.73370367 11.8533261,7.11243957 7,8.86168924 L7,12.9951133 L10.2387574,12.9951133 L10.2387574,23.4521311 C10.2387574,27.0307977 12.8794671,32.1166089 19.8508122,31.9979613 C22.2013164,31.9578777 24.8131658,30.9718204 25.3919735,30.1236507 L23.852762,25.5589268"></path>
</svg> -->
<svg viewBox="0 0 64 64" version="1.1" xmlns="http://www.w3.org/2000/svg" xmlns:xlink="http://www.w3.org/1999/xlink">
    <path id="Tumblr_1_" d="M37.7,51c-1-0.6-1.9-1.6-2.3-2.6c-0.4-1-0.3-3-0.3-6.5V26.6H49V15.9H35V2.1h-8.6c-0.4,3.1-1.1,5.6-2.1,7.6
    c-1,2-2.4,3.7-4.1,5.1c-1.7,1.4-4.4,2.5-6.8,3.3v8.5h8.2v21c0,2.7,0.3,4.8,0.9,6.3c0.6,1.4,1.6,2.8,3.1,4.1c1.5,1.3,3.3,2.3,5.4,3
    c2.1,0.7,3.8,1,6.5,1c2.4,0,4.7-0.2,6.8-0.7c2.1-0.5,4.4-1.3,7-2.5v-9.4c-3,2-6.1,3-9.1,3C40.5,52.2,39,51.8,37.7,51z"/>
</svg>
